<?xml version="1.0" encoding="UTF-8" standalone="no" ?>
<!DOCTYPE svg PUBLIC "-//W3C//DTD SVG 1.1//EN" "http://www.w3.org/Graphics/SVG/1.1/DTD/svg11.dtd">
<svg xmlns="http://www.w3.org/2000/svg" xmlns:xlink="http://www.w3.org/1999/xlink" version="1.1" width="1080" height="1080" viewBox="0 0 1080 1080" xml:space="preserve">
<desc>Created with Fabric.js 5.2.4</desc>
<defs>
</defs>
<g transform="matrix(1 0 0 1 540 540)" id="b7080eea-0512-4c47-a80e-868344f0f32d"  >
<rect style="stroke: none; stroke-width: 1; stroke-dasharray: none; stroke-linecap: butt; stroke-dashoffset: 0; stroke-linejoin: miter; stroke-miterlimit: 4; fill: rgb(255,255,255); fill-rule: nonzero; opacity: 1; visibility: hidden;" vector-effect="non-scaling-stroke"  x="-540" y="-540" rx="0" ry="0" width="1080" height="1080" />
</g>
<g transform="matrix(1 0 0 1 540 540)" id="ec69f75d-9402-4cad-be41-97ae71f1b48a"  >
</g>
<g transform="matrix(1 0 0 1 540 540)"  >
<g style="opacity: 1;" vector-effect="non-scaling-stroke"   >
		<g transform="matrix(1 0 0 1 -41.35 -6.4)"  >
<polygon style="stroke: none; stroke-width: 1; stroke-dasharray: none; stroke-linecap: butt; stroke-dashoffset: 0; stroke-linejoin: miter; stroke-miterlimit: 4; fill: rgb(206,206,206); fill-rule: nonzero; opacity: 1;" vector-effect="non-scaling-stroke"  points="-5.25,-8.4 5.25,-8.4 5.25,-4.7 -0.85,-4.7 -0.85,-2 4.55,-2 4.55,1.7 -0.85,1.7 -0.85,8.4 -5.25,8.4 " />
</g>
		<g transform="matrix(1 0 0 1 -10.1 -6.4)"  >
<path style="stroke: none; stroke-width: 1; stroke-dasharray: none; stroke-linecap: butt; stroke-dashoffset: 0; stroke-linejoin: miter; stroke-miterlimit: 4; fill: rgb(206,206,206); fill-rule: nonzero; opacity: 1;" vector-effect="non-scaling-stroke"  transform=" translate(-39.9, -16.1)" d="M 42.2 24.5 L 39.7 20 L 37 20 L 37 24.5 L 32.6 24.5 L 32.6 7.7 L 39.6 7.7 C 43 7.7 45.7 10.4 45.7 13.8 C 45.7 15.5 45 17.2 43.7 18.3 L 47.2 24.4 L 42.2 24.5 z M 36.9 16.3 L 39.6 16.3 C 40.9 16.3 42 15.3 42 13.9 C 42 12.6 41 11.5 39.7 11.5 L 36.800000000000004 11.5 L 36.800000000000004 16.3 z" stroke-linecap="round" />
</g>
		<g transform="matrix(1 0 0 1 -31.37 -6.35)"  >
<path style="stroke: none; stroke-width: 1; stroke-dasharray: none; stroke-linecap: butt; stroke-dashoffset: 0; stroke-linejoin: miter; stroke-miterlimit: 4; fill: rgb(206,206,206); fill-rule: nonzero; opacity: 1;" vector-effect="non-scaling-stroke"  transform=" translate(-18.63, -16.15)" d="M 22.5 20.8 L 21.5 20.8 C 20.8 20.8 20.2 20.2 20.2 19.5 L 20.2 19.5 L 20.2 12.6 C 20.2 11.9 20.8 11.299999999999999 21.5 11.299999999999999 L 21.5 11.299999999999999 L 22.5 11.299999999999999 L 22.5 7.8 C 17.9 8.1 14.4 12.2 14.8 16.8 C 15.100000000000001 20.9 18.400000000000002 24.200000000000003 22.5 24.5 L 22.5 20.8 z" stroke-linecap="round" />
</g>
		<g transform="matrix(1 0 0 1 -23.24 -6.35)"  >
<path style="stroke: none; stroke-width: 1; stroke-dasharray: none; stroke-linecap: butt; stroke-dashoffset: 0; stroke-linejoin: miter; stroke-miterlimit: 4; fill: rgb(206,206,206); fill-rule: nonzero; opacity: 1;" vector-effect="non-scaling-stroke"  transform=" translate(-26.77, -16.15)" d="M 22.9 7.8 L 22.9 11.4 L 23.9 11.4 C 24.599999999999998 11.4 25.2 12 25.2 12.700000000000001 L 25.2 12.700000000000001 L 25.2 19.6 C 25.2 20.3 24.599999999999998 20.900000000000002 23.9 20.900000000000002 L 23.9 20.900000000000002 L 22.9 20.900000000000002 L 22.9 24.500000000000004 C 27.5 24.200000000000003 31 20.1 30.599999999999998 15.500000000000004 C 30.3 11.3 27.1 8.1 22.9 7.8" stroke-linecap="round" />
</g>
		<g transform="matrix(1 0 0 1 3.9 -6.4)"  >
<polygon style="stroke: none; stroke-width: 1; stroke-dasharray: none; stroke-linecap: butt; stroke-dashoffset: 0; stroke-linejoin: miter; stroke-miterlimit: 4; fill: rgb(206,206,206); fill-rule: nonzero; opacity: 1;" vector-effect="non-scaling-stroke"  points="-5.2,-8.4 5.2,-8.4 5.2,-4.7 -0.8,-4.7 -0.8,-2 4.5,-2 4.5,1.7 -0.8,1.7 -0.8,4.8 5.2,4.8 5.2,8.4 -5.2,8.4 " />
</g>
		<g transform="matrix(1 0 0 1 24 -11.4)"  >
<polygon style="stroke: none; stroke-width: 1; stroke-dasharray: none; stroke-linecap: butt; stroke-dashoffset: 0; stroke-linejoin: miter; stroke-miterlimit: 4; fill: rgb(206,206,206); fill-rule: nonzero; opacity: 1;" vector-effect="non-scaling-stroke"  points="-1.4,3.8 4,-3.8 -1.3,-3.8 -4,0.1 " />
</g>
		<g transform="matrix(1 0 0 1 14.3 -6.65)"  >
<polygon style="stroke: none; stroke-width: 1; stroke-dasharray: none; stroke-linecap: butt; stroke-dashoffset: 0; stroke-linejoin: miter; stroke-miterlimit: 4; fill: rgb(206,206,206); fill-rule: nonzero; opacity: 1;" vector-effect="non-scaling-stroke"  points="3.3,5.95 7.8,-0.25 7.8,-0.35 7.8,-0.35 -1.9,-14.25 -1.9,-14.25 -2,-14.35 -7.2,-14.35 2.5,-0.35 -7.8,14.35 -2.6,14.35 3.4,5.95 " />
</g>
		<g transform="matrix(1 0 0 1 13.35 -6.85)"  >
<polygon style="stroke: none; stroke-width: 1; stroke-dasharray: none; stroke-linecap: butt; stroke-dashoffset: 0; stroke-linejoin: miter; stroke-miterlimit: 4; fill: rgb(206,206,206); fill-rule: nonzero; opacity: 1;" vector-effect="non-scaling-stroke"  points="1.15,1.95 2.65,-0.15 2.65,-0.15 -0.65,-4.85 -0.65,-4.85 -0.65,-4.85 -2.45,-4.85 0.85,-0.15 -2.65,4.85 -0.85,4.85 " />
</g>
		<g transform="matrix(1 0 0 1 24.25 -2.15)"  >
<polygon style="stroke: none; stroke-width: 1; stroke-dasharray: none; stroke-linecap: butt; stroke-dashoffset: 0; stroke-linejoin: miter; stroke-miterlimit: 4; fill: rgb(206,206,206); fill-rule: nonzero; opacity: 1;" vector-effect="non-scaling-stroke"  points="-0.55,-2.75 -0.55,-2.75 -1.55,-4.15 -4.25,-0.45 -0.95,4.15 4.25,4.15 " />
</g>
		<g transform="matrix(1 0 0 1 -9.15 12.7)"  >
<polygon style="stroke: none; stroke-width: 1; stroke-dasharray: none; stroke-linecap: butt; stroke-dashoffset: 0; stroke-linejoin: miter; stroke-miterlimit: 4; fill: rgb(206,206,206); fill-rule: nonzero; opacity: 1;" vector-effect="non-scaling-stroke"  points="-5.15,-8.2 5.15,-8.2 5.15,-4.6 -0.75,-4.6 -0.75,-2 4.45,-2 4.45,1.7 -0.75,1.7 -0.75,4.7 5.15,4.7 5.15,8.2 -5.15,8.2 " />
</g>
		<g transform="matrix(1 0 0 1 5.85 12.7)"  >
<polygon style="stroke: none; stroke-width: 1; stroke-dasharray: none; stroke-linecap: butt; stroke-dashoffset: 0; stroke-linejoin: miter; stroke-miterlimit: 4; fill: rgb(206,206,206); fill-rule: nonzero; opacity: 1;" vector-effect="non-scaling-stroke"  points="8.15,-8.2 2.65,-0.4 8.65,8.2 3.45,8.2 0.05,3.4 -3.35,8.2 -8.65,8.2 -2.65,-0.4 -8.15,-8.2 -2.85,-8.2 0.05,-4.1 2.85,-8.2 " />
</g>
		<g transform="matrix(1 0 0 1 22.45 12.75)"  >
<path style="stroke: none; stroke-width: 1; stroke-dasharray: none; stroke-linecap: butt; stroke-dashoffset: 0; stroke-linejoin: miter; stroke-miterlimit: 4; fill: rgb(206,206,206); fill-rule: nonzero; opacity: 1;" vector-effect="non-scaling-stroke"  transform=" translate(-72.45, -35.25)" d="M 66 27 L 72.9 27 C 76.2 27 78.9 29.8 78.9 33.1 C 78.9 36.300000000000004 76.30000000000001 39 73 39.1 L 70.3 39.1 L 70.3 43.5 L 66 43.5 L 66 27 z M 70.3 35.4 L 73 35.4 C 74.3 35.4 75.4 34.4 75.4 33.1 C 75.4 31.8 74.4 30.8 73.2 30.700000000000003 L 70.4 30.700000000000003 L 70.3 35.4 L 70.3 35.4 z" stroke-linecap="round" />
</g>
		<g transform="matrix(1 0 0 1 38.35 12.75)"  >
<path style="stroke: none; stroke-width: 1; stroke-dasharray: none; stroke-linecap: butt; stroke-dashoffset: 0; stroke-linejoin: miter; stroke-miterlimit: 4; fill: rgb(206,206,206); fill-rule: nonzero; opacity: 1;" vector-effect="non-scaling-stroke"  transform=" translate(-88.35, -35.25)" d="M 88.3 27 C 92.8 27 96.5 30.7 96.6 35.2 C 96.6 39.7 92.89999999999999 43.400000000000006 88.39999999999999 43.5 C 83.89999999999999 43.5 80.19999999999999 39.8 80.1 35.3 C 80.1 35.3 80.1 35.3 80.1 35.3 C 80.1 30.7 83.8 27 88.3 27 M 88.3 31.3 C 86.1 31.3 84.39999999999999 33 84.39999999999999 35.2 C 84.39999999999999 37.400000000000006 86.1 39.1 88.3 39.1 C 90.5 39.1 92.2 37.4 92.2 35.2 L 92.2 35.2 C 92.3 33.1 90.5 31.3 88.3 31.3 C 88.4 31.3 88.4 31.3 88.3 31.3 L 88.3 31.3" stroke-linecap="round" />
</g>
		<g transform="matrix(1 0 0 1 -41.35 -6.4)"  >
<polygon style="stroke: none; stroke-width: 1; stroke-dasharray: none; stroke-linecap: butt; stroke-dashoffset: 0; stroke-linejoin: miter; stroke-miterlimit: 4; fill: rgb(206,206,206); fill-rule: nonzero; opacity: 1; visibility: hidden;" vector-effect="non-scaling-stroke"  points="-5.25,-8.4 5.25,-8.4 5.25,-4.7 -0.85,-4.7 -0.85,-2 4.55,-2 4.55,1.7 -0.85,1.7 -0.85,8.4 -5.25,8.4 " />
</g>
		<g transform="matrix(1 0 0 1 -10.05 -6.4)"  >
<path style="stroke: none; stroke-width: 1; stroke-dasharray: none; stroke-linecap: butt; stroke-dashoffset: 0; stroke-linejoin: miter; stroke-miterlimit: 4; fill: rgb(206,206,206); fill-rule: nonzero; opacity: 1; visibility: hidden;" vector-effect="non-scaling-stroke"  transform=" translate(-39.95, -16.1)" d="M 42.2 24.5 L 39.7 20 L 37 20 L 37 24.5 L 32.6 24.5 L 32.6 7.7 L 39.6 7.7 C 43 7.7 45.7 10.4 45.800000000000004 13.8 C 45.800000000000004 15.5 45.1 17.2 43.800000000000004 18.3 L 47.300000000000004 24.4 L 42.2 24.5 z M 36.9 16.2 L 39.6 16.2 C 40.9 16.2 42 15.2 42 13.799999999999999 C 42 12.499999999999998 41 11.399999999999999 39.7 11.399999999999999 L 36.800000000000004 11.399999999999999 L 36.800000000000004 16.2 z" stroke-linecap="round" />
</g>
		<g transform="matrix(1 0 0 1 -31.37 -6.35)"  >
<path style="stroke: none; stroke-width: 1; stroke-dasharray: none; stroke-linecap: butt; stroke-dashoffset: 0; stroke-linejoin: miter; stroke-miterlimit: 4; fill: rgb(206,206,206); fill-rule: nonzero; opacity: 1; visibility: hidden;" vector-effect="non-scaling-stroke"  transform=" translate(-18.63, -16.15)" d="M 22.5 20.8 L 21.5 20.8 C 20.8 20.8 20.3 20.2 20.3 19.6 C 20.3 19.6 20.3 19.6 20.3 19.6 L 20.3 12.700000000000001 C 20.3 12.000000000000002 20.900000000000002 11.500000000000002 21.5 11.500000000000002 C 21.5 11.500000000000002 21.5 11.500000000000002 21.5 11.500000000000002 L 22.5 11.500000000000002 L 22.5 7.8 C 17.9 8.2 14.4 12.2 14.8 16.8 C 15.100000000000001 20.9 18.400000000000002 24.200000000000003 22.5 24.5 L 22.5 20.8 z" stroke-linecap="round" />
</g>
		<g transform="matrix(1 0 0 1 -23.14 -6.45)"  >
<path style="stroke: none; stroke-width: 1; stroke-dasharray: none; stroke-linecap: butt; stroke-dashoffset: 0; stroke-linejoin: miter; stroke-miterlimit: 4; fill: rgb(206,206,206); fill-rule: nonzero; opacity: 1; visibility: hidden;" vector-effect="non-scaling-stroke"  transform=" translate(-26.87, -16.05)" d="M 23 7.8 L 23 11.4 L 24 11.4 C 24.7 11.4 25.2 12 25.2 12.6 C 25.2 12.6 25.2 12.6 25.2 12.6 L 25.2 19.5 C 25.2 20.2 24.599999999999998 20.7 24 20.7 C 24 20.7 24 20.7 24 20.7 L 23 20.7 L 23 24.3 C 27.6 23.900000000000002 31.1 19.9 30.7 15.3 C 30.3 11.4 27.1 8.1 23 7.8" stroke-linecap="round" />
</g>
		<g transform="matrix(1 0 0 1 3.9 -6.4)"  >
<polygon style="stroke: none; stroke-width: 1; stroke-dasharray: none; stroke-linecap: butt; stroke-dashoffset: 0; stroke-linejoin: miter; stroke-miterlimit: 4; fill: rgb(206,206,206); fill-rule: nonzero; opacity: 1; visibility: hidden;" vector-effect="non-scaling-stroke"  points="-5.2,-8.4 5.2,-8.4 5.2,-4.7 -0.8,-4.7 -0.8,-2 4.5,-2 4.5,1.7 -0.8,1.7 -0.8,4.8 5.2,4.8 5.2,8.4 -5.2,8.4 " />
</g>
		<g transform="matrix(1 0 0 1 24 -11.4)"  >
<polygon style="stroke: none; stroke-width: 1; stroke-dasharray: none; stroke-linecap: butt; stroke-dashoffset: 0; stroke-linejoin: miter; stroke-miterlimit: 4; fill: rgb(206,206,206); fill-rule: nonzero; opacity: 1; visibility: hidden;" vector-effect="non-scaling-stroke"  points="-1.4,3.8 4,-3.8 -1.3,-3.8 -4,0.1 " />
</g>
		<g transform="matrix(1 0 0 1 14.3 -6.65)"  >
<polygon style="stroke: none; stroke-width: 1; stroke-dasharray: none; stroke-linecap: butt; stroke-dashoffset: 0; stroke-linejoin: miter; stroke-miterlimit: 4; fill: rgb(206,206,206); fill-rule: nonzero; opacity: 1; visibility: hidden;" vector-effect="non-scaling-stroke"  points="3.4,5.95 7.8,-0.35 7.8,-0.35 7.8,-0.35 -1.9,-14.25 -1.9,-14.25 -2,-14.35 -7.2,-14.35 2.5,-0.35 -7.8,14.35 -2.6,14.35 3.4,5.95 " />
</g>
		<g transform="matrix(1 0 0 1 13.35 -6.85)"  >
<polygon style="stroke: none; stroke-width: 1; stroke-dasharray: none; stroke-linecap: butt; stroke-dashoffset: 0; stroke-linejoin: miter; stroke-miterlimit: 4; fill: rgb(206,206,206); fill-rule: nonzero; opacity: 1; visibility: hidden;" vector-effect="non-scaling-stroke"  points="1.15,1.95 2.65,-0.15 2.65,-0.15 -0.65,-4.85 -0.65,-4.85 -0.65,-4.85 -2.45,-4.85 0.85,-0.15 -2.65,4.85 -0.85,4.85 1.15,1.95 " />
</g>
		<g transform="matrix(1 0 0 1 24.25 -2.15)"  >
<polygon style="stroke: none; stroke-width: 1; stroke-dasharray: none; stroke-linecap: butt; stroke-dashoffset: 0; stroke-linejoin: miter; stroke-miterlimit: 4; fill: rgb(206,206,206); fill-rule: nonzero; opacity: 1; visibility: hidden;" vector-effect="non-scaling-stroke"  points="-0.55,-2.75 -0.55,-2.75 -1.55,-4.15 -4.25,-0.45 -0.95,4.15 4.25,4.15 " />
</g>
		<g transform="matrix(1 0 0 1 -9.1 12.7)"  >
<polygon style="stroke: none; stroke-width: 1; stroke-dasharray: none; stroke-linecap: butt; stroke-dashoffset: 0; stroke-linejoin: miter; stroke-miterlimit: 4; fill: rgb(206,206,206); fill-rule: nonzero; opacity: 1; visibility: hidden;" vector-effect="non-scaling-stroke"  points="-5.1,-8.2 5.1,-8.2 5.1,-4.6 -0.8,-4.6 -0.8,-2 4.4,-2 4.4,1.7 -0.8,1.7 -0.8,4.7 5.1,4.7 5.1,8.2 -5.1,8.2 " />
</g>
		<g transform="matrix(1 0 0 1 5.85 12.7)"  >
<polygon style="stroke: none; stroke-width: 1; stroke-dasharray: none; stroke-linecap: butt; stroke-dashoffset: 0; stroke-linejoin: miter; stroke-miterlimit: 4; fill: rgb(206,206,206); fill-rule: nonzero; opacity: 1; visibility: hidden;" vector-effect="non-scaling-stroke"  points="8.15,-8.2 2.65,-0.3 8.65,8.2 3.45,8.2 0.05,3.4 -3.35,8.2 -8.65,8.2 -2.65,-0.3 -8.15,-8.2 -2.85,-8.2 0.05,-4.1 2.85,-8.2 " />
</g>
		<g transform="matrix(1 0 0 1 22.45 12.75)"  >
<path style="stroke: none; stroke-width: 1; stroke-dasharray: none; stroke-linecap: butt; stroke-dashoffset: 0; stroke-linejoin: miter; stroke-miterlimit: 4; fill: rgb(206,206,206); fill-rule: nonzero; opacity: 1; visibility: hidden;" vector-effect="non-scaling-stroke"  transform=" translate(-72.45, -35.25)" d="M 66 27 L 72.9 27 C 76.2 27.1 78.9 29.8 78.9 33.1 C 78.9 36.300000000000004 76.30000000000001 39 73 39.1 L 70.3 39.1 L 70.3 43.5 L 66 43.5 L 66 27 z M 70.3 35.4 L 73 35.4 C 74.3 35.4 75.4 34.4 75.4 33.1 C 75.4 31.8 74.4 30.8 73.2 30.700000000000003 L 70.4 30.700000000000003 L 70.4 35.4 z" stroke-linecap="round" />
</g>
		<g transform="matrix(1 0 0 1 38.35 12.75)"  >
<path style="stroke: none; stroke-width: 1; stroke-dasharray: none; stroke-linecap: butt; stroke-dashoffset: 0; stroke-linejoin: miter; stroke-miterlimit: 4; fill: rgb(206,206,206); fill-rule: nonzero; opacity: 1; visibility: hidden;" vector-effect="non-scaling-stroke"  transform=" translate(-88.35, -35.25)" d="M 88.3 27 C 92.8 27 96.5 30.7 96.6 35.2 C 96.69999999999999 39.7 92.89999999999999 43.400000000000006 88.39999999999999 43.5 C 83.89999999999999 43.5 80.19999999999999 39.8 80.1 35.3 C 80.1 35.3 80.1 35.3 80.1 35.3 C 80.1 30.7 83.8 27 88.3 27 M 88.3 31.3 C 86.1 31.3 84.39999999999999 33.1 84.39999999999999 35.2 C 84.39999999999999 37.400000000000006 86.19999999999999 39.1 88.3 39.1 C 90.4 39.1 92.2 37.300000000000004 92.2 35.2 L 92.2 35.2 C 92.3 33.1 90.5 31.3 88.3 31.3 C 88.4 31.3 88.3 31.3 88.3 31.3 L 88.3 31.3" stroke-linecap="round" />
</g>
</g>
</g>
</svg>