<svg width="171" height="56" viewBox="0 0 171 56" fill="none" xmlns="http://www.w3.org/2000/svg">
<path d="M40.6094 16.2806H49.351C53.6796 16.2806 56.6568 18.7085 56.6568 22.6354C56.6568 25.2955 55.052 27.259 53.4684 27.8923C55.3265 28.4201 57.4591 30.2147 57.4591 33.4448C57.4591 37.3928 54.2074 39.884 49.6255 39.884H40.6305V16.2806H40.6094ZM44.9802 20.1442V26.1189H48.992C51.0613 26.1189 52.1804 24.6833 52.1804 22.9943C52.1804 21.432 50.9768 20.1442 48.8865 20.1442H44.9802ZM44.9802 36.0205H49.5621C51.5258 36.0205 52.8772 34.5849 52.8772 32.7903C52.8772 31.0591 51.2725 29.6657 49.1821 29.6657H44.9591V36.0205H44.9802Z" fill="black"/>
<path d="M76.3233 30.2016C76.3233 30.9261 76.1978 31.6714 76.0514 32.251H64.2755C64.5474 34.8593 66.7436 36.2256 69.2118 36.2256C71.1152 36.2256 72.642 35.4182 73.6251 34.3625L75.9887 37.1571C73.9389 39.0823 71.7426 39.8897 69.0026 39.8897C63.4807 39.8897 59.8203 36.1014 59.8203 31.2159C59.8203 26.3305 63.4179 22.4801 68.4169 22.4801C73.1859 22.5008 76.3233 25.7923 76.3233 30.2016ZM64.2755 29.3735H72.1401V29.3321C71.9727 27.3034 70.404 26.0407 68.396 26.0407C66.2835 26.0614 64.5893 27.3034 64.2755 29.3735Z" fill="black"/>
<path d="M79.6699 16.3733H83.9578V34.259C83.9578 35.294 84.146 36.1428 85.4428 36.1428C85.7357 36.1428 86.1331 36.1014 86.5723 35.9565V39.5377C86.0076 39.7655 85.3592 39.8896 84.5644 39.8896C81.8034 39.8896 79.6908 38.482 79.6908 35.0042V16.3733H79.6699Z" fill="black"/>
<path d="M89.4785 16.3733H93.7664V34.259C93.7664 35.294 93.9546 36.1428 95.2514 36.1428C95.5443 36.1428 95.9417 36.1014 96.3809 35.9565V39.5377C95.8162 39.7655 95.1677 39.8896 94.3729 39.8896C91.612 39.8896 89.4994 38.482 89.4994 35.0042V16.3733H89.4785Z" fill="black"/>
<path d="M114.39 30.2016C114.39 30.9261 114.264 31.6714 114.118 32.251H102.342C102.614 34.8593 104.81 36.2256 107.278 36.2256C109.182 36.2256 110.708 35.4182 111.692 34.3625L114.055 37.1571C112.005 39.0823 109.809 39.8897 107.069 39.8897C101.547 39.8897 97.8867 36.1014 97.8867 31.2159C97.8867 26.3305 101.484 22.4801 106.483 22.4801C111.273 22.5008 114.39 25.7923 114.39 30.2016ZM102.342 29.3735H110.206V29.3321C110.039 27.3034 108.47 26.0407 106.462 26.0407C104.35 26.0614 102.677 27.3034 102.342 29.3735Z" fill="black"/>
<path d="M134.427 31.1955C134.427 36.081 130.683 39.8899 125.538 39.8899C120.413 39.8899 116.648 36.081 116.648 31.1955C116.648 26.3101 120.392 22.5011 125.538 22.5011C130.683 22.5011 134.427 26.3101 134.427 31.1955ZM120.999 31.1955C120.999 33.9695 122.902 36.0396 125.538 36.0396C128.173 36.0396 130.077 33.9488 130.077 31.1955C130.077 28.4423 128.173 26.3515 125.538 26.3515C122.923 26.3515 120.999 28.4423 120.999 31.1955Z" fill="black"/>
<path d="M163.508 27.9134L170.723 16.2806H165.7L160.613 24.5988L155.526 16.2806H137.818V39.884H142.224V30.3836H150.61V26.5623H142.224V20.1442H152.908L157.74 27.9134L150.227 39.884H155.186L160.613 31.2069L166.04 39.884H170.999L163.508 27.9134Z" fill="url(#paint0_linear_16_4959)"/>
<path d="M0 0.291626V55.7083L13.5956 49.1046L27.1913 55.7083V10.5179L0 0.291626ZM22.3387 18.4257C22.3387 18.4257 23.4472 25.4434 18.4064 28.7969C17.9044 27.9482 17.256 27.2444 16.5239 26.6647C17.4233 25.9816 20.7281 23.2077 22.3387 18.4257ZM13.5956 46.9931L1.5269 53.1206V30.3702C2.04981 29.6664 2.63546 28.9832 3.26295 28.2794L3.74403 27.6998C4.24602 28.5071 4.999 29.1281 5.66833 29.5422L6.88149 30.1839C6.88149 30.1839 0.857565 25.5883 5.14542 21.2411C9.41235 16.9145 12.257 17.2665 14.9761 12.0498C14.9761 12.0498 15.0389 17.8668 10.3745 20.7235C5.73108 23.5803 9.7261 27.6998 9.7261 27.6998C9.7261 27.6998 8.61753 26.1679 8.82669 24.5739C8.82669 24.5739 16.3566 25.0915 18.3855 30.4737L22.255 39.7685C22.255 39.7685 21.3138 42.5217 18.1136 43.7224C18.1136 43.7224 15.2899 41.3003 12.2988 40.079L25.7062 53.1413L13.5956 46.9931Z" fill="url(#paint1_linear_16_4959)"/>
<defs>
<linearGradient id="paint0_linear_16_4959" x1="137.811" y1="28.0832" x2="171.002" y2="28.0832" gradientUnits="userSpaceOnUse">
<stop stop-color="#8F4DED"/>
<stop offset="1" stop-color="#6D43E1"/>
</linearGradient>
<linearGradient id="paint1_linear_16_4959" x1="0" y1="27.9893" x2="27.1959" y2="27.9893" gradientUnits="userSpaceOnUse">
<stop stop-color="#8F4DED"/>
<stop offset="1" stop-color="#6D43E1"/>
</linearGradient>
</defs>
</svg>
