<svg xmlns="http://www.w3.org/2000/svg" width="180" height="56" fill="none"><g clip-path="url(#a)"><path fill="#26914A" d="M50.236 56H5.764A5.763 5.763 0 0 1 0 50.236V5.764A5.763 5.763 0 0 1 5.764 0h44.472A5.763 5.763 0 0 1 56 5.764v44.472A5.763 5.763 0 0 1 50.236 56Z"/><mask id="b" width="56" height="56" x="0" y="0" maskUnits="userSpaceOnUse" style="mask-type:alpha"><path fill="#26914A" d="M50.236 56H5.764A5.763 5.763 0 0 1 0 50.236V5.764A5.763 5.763 0 0 1 5.764 0h44.472A5.763 5.763 0 0 1 56 5.764v44.472A5.763 5.763 0 0 1 50.236 56Z"/></mask><g mask="url(#b)"><path fill="#096328" d="M26.06 56.432 8.41 38.792l.979-2.105 1.098-17.314 8.873-2.213 3.704 3.636 1.513-1.793h7.846l4.553 4.55 4.628-5.01 4.815-.283 10.61 10.875V56.432H26.06Z"/><path fill="#fff" d="M33.903 23.24c0-3.54-2.557-6.014-6.217-6.014h-5.553V38.77h5.553c3.662 0 6.219-2.46 6.219-5.984 0-2.09-.93-3.815-2.572-4.806 1.661-.985 2.57-2.652 2.57-4.74Zm-8.172 2.987v-5.58h1.652c1.454 0 2.922.859 2.922 2.775 0 1.937-1.468 2.805-2.922 2.805H25.73Zm4.574 6.256c0 1.97-1.514 2.866-2.922 2.866H25.73v-5.7h1.652c2.019 0 2.922 1.423 2.922 2.834ZM8.482 38.77h3.598v-9.182h7.326v-3.422H12.08v-5.519h7.326v-3.421H8.482V38.77ZM43.7 26.676l-1.091-.515c-1.993-.932-2.88-1.964-2.88-3.345 0-1.74 1.358-2.532 2.62-2.532 1.59 0 2.835 1.236 2.892 2.874l.009.248h3.414l-.005-.26c-.066-3.606-2.707-6.222-6.28-6.222-3.563 0-6.25 2.56-6.25 5.954 0 2.757 1.732 4.917 5.149 6.417l1.181.515c1.898.825 2.782 1.877 2.782 3.311 0 1.558-1.041 2.563-2.65 2.563-1.37 0-2.982-.863-3.014-3.293l-.003-.253h-3.445v.65c0 3.643 2.679 6.287 6.37 6.287 3.615 0 6.341-2.573 6.341-5.984 0-3.534-2.748-5.284-5.14-6.415Z"/></g></g><path fill="#26914A" fill-rule="evenodd" d="M76.497 23.647V12.249H72V10h11.573v2.249h-4.478v11.398h-2.598Zm7.79 0V13.76h2.306v1.531c.426-.989 1.182-1.59 2.481-1.59h1.706v2.327h-1.783c-1.745 0-2.307.794-2.307 2.345v5.273h-2.404Zm16.924 0V13.76h-2.404v5.31c0 1.804-1.086 2.58-2.23 2.58-1.162 0-1.822-.757-1.822-2.153v-5.737h-2.403v6.493c0 2.19 1.337 3.664 3.567 3.664 1.26 0 2.268-.465 2.946-1.434v1.163h2.346Zm8.322-7.017c-.232-.718-1.046-1.086-1.977-1.086-1.027 0-1.744.407-1.744.989 0 .387.31.736 1.512.93l1.395.233c2.346.387 3.431 1.453 3.431 3.043 0 1.958-1.705 3.179-4.4 3.179-2.714 0-4.342-1.202-4.691-3.354h2.52c.233.853 1.047 1.3 2.268 1.3 1.202 0 1.861-.447 1.861-1.028 0-.426-.407-.795-1.551-.989l-1.454-.252c-2.151-.368-3.295-1.434-3.295-2.927 0-1.841 1.725-3.179 4.284-3.179 2.501 0 4.051 1.183 4.342 3.14h-2.501Zm5.469 4.4c0 1.59.794 2.617 2.442 2.617h2.21v-2.133h-1.318c-.582 0-.931-.271-.931-.969v-4.69h2.249V13.76h-2.249v-2.443h-2.403v2.443h-1.823v2.093h1.823v5.176Zm5.733-2.326c0-3.102 2.055-5.215 4.904-5.215 2.831 0 4.711 2.132 4.711 5.234v.834h-7.211c.194 1.415 1.182 2.248 2.539 2.248.892 0 1.551-.29 1.997-.988h2.559c-.698 2.035-2.365 3.101-4.517 3.101-3.005 0-4.982-2.132-4.982-5.214Zm2.443-1.086h4.749c-.233-1.24-1.066-2.055-2.346-2.055-1.26 0-2.113.795-2.403 2.055Zm15.887 6.029h2.364V10h-2.364v4.807c-.737-.833-1.861-1.318-3.141-1.318-2.597 0-4.342 2.132-4.342 5.215 0 3.082 1.803 5.214 4.4 5.214 1.241 0 2.365-.465 3.083-1.337v1.066Zm-2.637-1.9c-1.492 0-2.403-1.24-2.403-3.043 0-1.784.949-3.044 2.423-3.044 1.589 0 2.617 1.24 2.617 3.044 0 1.841-1.028 3.043-2.637 3.043ZM73.17 42.588V28.942h2.365v4.807c.737-.834 1.86-1.318 3.14-1.318 2.598 0 4.342 2.132 4.342 5.214 0 3.082-1.802 5.215-4.4 5.215-1.24 0-2.365-.465-3.082-1.338v1.066H73.17Zm2.365-4.943c0 1.842 1.027 3.044 2.636 3.044 1.493 0 2.404-1.24 2.404-3.044 0-1.783-.95-3.043-2.423-3.043-1.59 0-2.617 1.24-2.617 3.043ZM84.195 46v-2.171h1.609c.872 0 1.104-.465 1.318-1.066l.058-.175-3.993-9.886h2.539l2.636 6.979 2.617-6.979h2.481l-4.342 11.166C88.478 45.515 87.664 46 86.327 46h-2.132Zm49.63-3.395h2.365V28.958h-2.365v4.808c-.736-.834-1.861-1.318-3.14-1.318-2.597 0-4.342 2.132-4.342 5.214 0 3.082 1.803 5.214 4.4 5.214 1.241 0 2.365-.465 3.082-1.337v1.066Zm-2.636-1.9c-1.493 0-2.404-1.24-2.404-3.043 0-1.783.95-3.043 2.423-3.043 1.59 0 2.617 1.24 2.617 3.043 0 1.842-1.027 3.043-2.636 3.043Zm-29.851-.717c0 1.59.795 2.617 2.443 2.617h2.21v-2.132h-1.319c-.581 0-.93-.272-.93-.97v-4.69h2.249v-2.094h-2.249v-2.443h-2.404v2.443h-1.822v2.093h1.822v5.176Zm6.18-7.269v9.886h2.404v-5.272c0-1.551.562-2.346 2.306-2.346h1.784v-2.326h-1.706c-1.299 0-2.055.6-2.481 1.59v-1.532h-2.307Zm11.775 10.157c-2.617 0-4.497-2.132-4.497-5.214 0-3.082 1.86-5.214 4.574-5.214 1.28 0 2.229.504 2.85 1.318v-1.047h2.384v9.886h-2.384v-1.124c-.64.891-1.648 1.395-2.927 1.395Zm-2.055-5.214c0 1.822.969 3.043 2.501 3.043 1.473 0 2.384-1.182 2.384-3.043 0-1.822-.931-3.043-2.384-3.043-1.493 0-2.501 1.24-2.501 3.043Zm20.69 0c0-3.102 2.055-5.214 4.904-5.214 2.831 0 4.711 2.132 4.711 5.233v.834h-7.211c.194 1.415 1.182 2.248 2.539 2.248.892 0 1.551-.29 1.997-.988h2.559c-.698 2.035-2.365 3.101-4.517 3.101-3.005 0-4.982-2.132-4.982-5.214Zm2.443-1.085h4.749c-.233-1.241-1.066-2.055-2.346-2.055-1.26 0-2.113.794-2.403 2.055Zm11.062-3.858h-2.307v9.886h2.404v-5.272c0-1.551.562-2.346 2.307-2.346h1.783v-2.326h-1.706c-1.298 0-2.054.6-2.481 1.59v-1.532Zm11.923 2.869c-.232-.717-1.047-1.086-1.977-1.086-1.027 0-1.745.407-1.745.989 0 .388.31.737 1.512.93l1.396.233c2.346.388 3.431 1.454 3.431 3.043 0 1.958-1.706 3.18-4.4 3.18-2.714 0-4.342-1.202-4.691-3.354h2.52c.232.853 1.046 1.299 2.268 1.299 1.202 0 1.861-.446 1.861-1.028 0-.426-.407-.794-1.551-.988l-1.454-.252c-2.152-.369-3.295-1.435-3.295-2.927 0-1.842 1.725-3.18 4.284-3.18 2.5 0 4.051 1.183 4.342 3.14h-2.501Z" clip-rule="evenodd"/><defs><clipPath id="a"><path fill="#fff" d="M0 0h56v56H0z"/></clipPath></defs></svg>