<?xml version="1.0" encoding="UTF-8"?> <svg xmlns="http://www.w3.org/2000/svg" xmlns:xlink="http://www.w3.org/1999/xlink" version="1.1" id="Layer_1" x="0px" y="0px" viewBox="0 0 100 45" style="enable-background:new 0 0 100 45;" xml:space="preserve"> <style type="text/css"> .st0{fill:#FFFFFF;} .st1{display:none;} .st2{display:inline;} .st3{fill:#272661;} .st4{fill:#EC2747;} .st5{fill:#55A986;} </style> <g id="Layer_2_1_"> <g id="Layer_1-2"> <polygon class="st0" points="3.4,7.7 13.9,7.7 13.9,11.4 7.8,11.4 7.8,14.1 13.2,14.1 13.2,17.8 7.8,17.8 7.8,24.5 3.4,24.5 "></polygon> <path class="st0" d="M42.2,24.5L39.7,20h-2.7v4.5h-4.4V7.7h7c3.4,0,6.1,2.7,6.1,6.1c0,1.7-0.7,3.4-2,4.5l3.5,6.1L42.2,24.5z M36.9,16.3h2.7c1.3,0,2.4-1,2.4-2.4c0-1.3-1-2.4-2.3-2.4h-2.9V16.3z"></path> <path class="st0" d="M22.5,20.8h-1c-0.7,0-1.3-0.6-1.3-1.3l0,0v-6.9c0-0.7,0.6-1.3,1.3-1.3l0,0h1V7.8c-4.6,0.3-8.1,4.4-7.7,9 c0.3,4.1,3.6,7.4,7.7,7.7V20.8z"></path> <path class="st0" d="M22.9,7.8v3.6h1c0.7,0,1.3,0.6,1.3,1.3l0,0v6.9c0,0.7-0.6,1.3-1.3,1.3l0,0h-1v3.6c4.6-0.3,8.1-4.4,7.7-9 C30.3,11.3,27.1,8.1,22.9,7.8"></path> <polygon class="st0" points="48.7,7.7 59.1,7.7 59.1,11.4 53.1,11.4 53.1,14.1 58.4,14.1 58.4,17.8 53.1,17.8 53.1,20.9 59.1,20.9 59.1,24.5 48.7,24.5 "></polygon> <polygon class="st0" points="72.6,14.9 78,7.3 72.7,7.3 70,11.2 "></polygon> <polygon class="st0" points="67.6,21.8 72.1,15.6 72.1,15.5 72.1,15.5 62.4,1.6 62.4,1.6 62.3,1.5 57.1,1.5 66.8,15.5 56.5,30.2 61.7,30.2 67.7,21.8 "></polygon> <polygon class="st0" points="64.5,17.6 66,15.5 66,15.5 62.7,10.8 62.7,10.8 62.7,10.8 60.9,10.8 64.2,15.5 60.7,20.5 62.5,20.5 "></polygon> <polygon class="st0" points="73.7,17.6 73.7,17.6 72.7,16.2 70,19.9 73.3,24.5 78.5,24.5 "></polygon> <polygon class="st0" points="35.7,27 46,27 46,30.6 40.1,30.6 40.1,33.2 45.3,33.2 45.3,36.9 40.1,36.9 40.1,39.9 46,39.9 46,43.4 35.7,43.4 "></polygon> <polygon class="st0" points="64,27 58.5,34.8 64.5,43.4 59.3,43.4 55.9,38.6 52.5,43.4 47.2,43.4 53.2,34.8 47.7,27 53,27 55.9,31.1 58.7,27 "></polygon> <path class="st0" d="M66,27h6.9c3.3,0,6,2.8,6,6.1c0,3.2-2.6,5.9-5.9,6h-2.7v4.4H66L66,27z M70.3,35.4H73c1.3,0,2.4-1,2.4-2.3 c0-1.3-1-2.3-2.2-2.4h-2.8L70.3,35.4L70.3,35.4z"></path> <path class="st0" d="M88.3,27c4.5,0,8.2,3.7,8.3,8.2c0,4.5-3.7,8.2-8.2,8.3c-4.5,0-8.2-3.7-8.3-8.2c0,0,0,0,0,0 C80.1,30.7,83.8,27,88.3,27 M88.3,31.3c-2.2,0-3.9,1.7-3.9,3.9s1.7,3.9,3.9,3.9s3.9-1.7,3.9-3.9l0,0 C92.3,33.1,90.5,31.3,88.3,31.3C88.4,31.3,88.4,31.3,88.3,31.3L88.3,31.3"></path> </g> </g> <g id="Layer_2_2_" class="st1"> <g id="Layer_1-2_1_" class="st2"> <polygon class="st3" points="3.4,7.7 13.9,7.7 13.9,11.4 7.8,11.4 7.8,14.1 13.2,14.1 13.2,17.8 7.8,17.8 7.8,24.5 3.4,24.5 "></polygon> <path class="st3" d="M42.2,24.5L39.7,20h-2.7v4.5h-4.4V7.7h7c3.4,0,6.1,2.7,6.2,6.1c0,1.7-0.7,3.4-2,4.5l3.5,6.1L42.2,24.5z M36.9,16.2h2.7c1.3,0,2.4-1,2.4-2.4c0-1.3-1-2.4-2.3-2.4h-2.9V16.2z"></path> <path class="st4" d="M22.5,20.8h-1c-0.7,0-1.2-0.6-1.2-1.2c0,0,0,0,0,0v-6.9c0-0.7,0.6-1.2,1.2-1.2c0,0,0,0,0,0h1V7.8 c-4.6,0.4-8.1,4.4-7.7,9c0.3,4.1,3.6,7.4,7.7,7.7V20.8z"></path> <path class="st5" d="M23,7.8v3.6h1c0.7,0,1.2,0.6,1.2,1.2c0,0,0,0,0,0v6.9c0,0.7-0.6,1.2-1.2,1.2c0,0,0,0,0,0h-1v3.6 c4.6-0.4,8.1-4.4,7.7-9C30.3,11.4,27.1,8.1,23,7.8"></path> <polygon class="st3" points="48.7,7.7 59.1,7.7 59.1,11.4 53.1,11.4 53.1,14.1 58.4,14.1 58.4,17.8 53.1,17.8 53.1,20.9 59.1,20.9 59.1,24.5 48.7,24.5 "></polygon> <polygon class="st5" points="72.6,14.9 78,7.3 72.7,7.3 70,11.2 "></polygon> <polygon class="st3" points="67.7,21.8 72.1,15.5 72.1,15.5 72.1,15.5 62.4,1.6 62.4,1.6 62.3,1.5 57.1,1.5 66.8,15.5 56.5,30.2 61.7,30.2 67.7,21.8 "></polygon> <polygon class="st4" points="64.5,17.6 66,15.5 66,15.5 62.7,10.8 62.7,10.8 62.7,10.8 60.9,10.8 64.2,15.5 60.7,20.5 62.5,20.5 64.5,17.6 "></polygon> <polygon class="st5" points="73.7,17.6 73.7,17.6 72.7,16.2 70,19.9 73.3,24.5 78.5,24.5 "></polygon> <polygon class="st3" points="35.8,27 46,27 46,30.6 40.1,30.6 40.1,33.2 45.3,33.2 45.3,36.9 40.1,36.9 40.1,39.9 46,39.9 46,43.4 35.8,43.4 "></polygon> <polygon class="st3" points="64,27 58.5,34.9 64.5,43.4 59.3,43.4 55.9,38.6 52.5,43.4 47.2,43.4 53.2,34.9 47.7,27 53,27 55.9,31.1 58.7,27 "></polygon> <path class="st3" d="M66,27h6.9c3.3,0.1,6,2.8,6,6.1c0,3.2-2.6,5.9-5.9,6h-2.7v4.4H66L66,27z M70.3,35.4H73c1.3,0,2.4-1,2.4-2.3 c0-1.3-1-2.3-2.2-2.4h-2.8V35.4z"></path> <path class="st3" d="M88.3,27c4.5,0,8.2,3.7,8.3,8.2s-3.7,8.2-8.2,8.3c-4.5,0-8.2-3.7-8.3-8.2c0,0,0,0,0,0 C80.1,30.7,83.8,27,88.3,27 M88.3,31.3c-2.2,0-3.9,1.8-3.9,3.9c0,2.2,1.8,3.9,3.9,3.9s3.9-1.8,3.9-3.9l0,0 C92.3,33.1,90.5,31.3,88.3,31.3C88.4,31.3,88.3,31.3,88.3,31.3L88.3,31.3"></path> </g> </g> </svg> 